<svg width="288" height="48" viewBox="0 0 288 48" fill="none" xmlns="http://www.w3.org/2000/svg">
<path d="M30.7942 0.910323H43.1532V47.4009L12.4797 27.8697V47.4009H0.12064V0.910323L30.7942 21.8823V0.910323ZM57.9457 30.3351V35.0418H89.8039V47.4009H45.5866V17.9761H85.5454V30.3351H57.9457ZM89.8039 13.2694H45.5866V0.910323H89.8039V13.2694ZM134.277 0.910323V26.3649C134.277 29.1398 133.733 31.8293 132.644 34.4335C131.577 37.0163 130.062 39.2896 128.098 41.2534C126.134 43.2172 123.861 44.7327 121.278 45.8C118.716 46.8672 116.038 47.4009 113.241 47.4009C110.445 47.4009 107.755 46.8672 105.173 45.8C102.59 44.7327 100.317 43.2172 98.3527 41.2534C96.389 39.2896 94.8734 37.027 93.8061 34.4655C92.7389 31.8827 92.2052 29.1931 92.2052 26.3969V0.910323H104.564V26.3969C104.564 28.7876 105.407 30.8368 107.094 32.5444C108.801 34.2307 110.851 35.0738 113.241 35.0738C115.632 35.0738 117.67 34.2307 119.357 32.5444C121.064 30.8368 121.918 28.7876 121.918 26.3969V0.910323H134.277ZM177.598 27.9017L184.674 47.4009H170.746L165.079 31.808H149.006V47.4009H136.647V0.910323H149.006V19.4489H167.48C168.334 19.4489 169.06 19.1501 169.657 18.5524C170.255 17.9334 170.554 17.197 170.554 16.3431C170.554 15.4893 170.255 14.7636 169.657 14.1659C169.06 13.5682 168.334 13.2694 167.48 13.2694H154.801V0.910323H167.416C170.639 0.888978 173.574 1.79616 176.221 3.63188C178.868 5.44625 180.757 7.85829 181.888 10.868C183.02 13.8777 183.191 16.9408 182.401 20.0573C181.632 23.1737 180.031 25.7885 177.598 27.9017ZM187.043 0.910323H230.46V47.4009H218.101V35.0418H199.402V47.4009H187.043V0.910323ZM218.101 22.6828V13.2694H199.402V22.6828H218.101Z" fill="white"/>
<path d="M279.32 24.1556C281.946 26.1194 283.995 28.5741 285.468 31.5198C286.94 34.4441 287.677 37.5499 287.677 40.8371V47.4009H275.318V40.8371C275.318 38.5532 274.528 36.5787 272.948 34.9137C271.369 33.2274 269.437 32.3203 267.153 32.1922H253.353C251.069 32.3203 249.138 33.2274 247.558 34.9137C245.978 36.5787 245.189 38.5532 245.189 40.8371V47.4009H232.83V40.8371C232.83 37.5499 233.566 34.4441 235.039 31.5198C236.512 28.5741 238.561 26.1194 241.186 24.1556C238.561 22.1918 236.512 19.7371 235.039 16.7914C233.566 13.8457 232.83 10.7293 232.83 7.44205V0.910323H245.189V7.44205C245.189 9.72603 245.968 11.7112 247.526 13.3975C249.106 15.0624 251.037 15.9696 253.321 16.119H267.217C269.501 15.9696 271.422 15.0624 272.98 13.3975C274.539 11.7112 275.318 9.72603 275.318 7.44205V0.910323H287.677V7.44205C287.677 10.7293 286.94 13.8457 285.468 16.7914C283.995 19.7371 281.946 22.1918 279.32 24.1556Z" fill="#5C74FF"/>
</svg>
